<?xml version="1.0" encoding="UTF-8"?>
<svg id="Ebene_1" data-name="Ebene 1" xmlns="http://www.w3.org/2000/svg" viewBox="0 0 141.73 141.73">
  <circle cx="70.87" cy="70.87" r="68.03" style="fill: #fff; opacity: .2; stroke-width: 0px;"/>
  <path d="m70.87,8c34.66,0,62.87,28.2,62.87,62.87s-28.2,62.87-62.87,62.87S8,105.53,8,70.87,36.2,8,70.87,8M70.87,0C31.73,0,0,31.73,0,70.87s31.73,70.87,70.87,70.87,70.87-31.73,70.87-70.87S110,0,70.87,0h0Z" style="stroke-width: 0px;"/>
  <path d="m114.24,42.48l-4.51-4.51c-1.97-1.97-5.17-1.97-7.14,0l-45.55,45.55c-.17.17-.37.21-.5.21s-.33-.04-.5-.21l-14.58-14.58c-1.97-1.97-5.17-1.97-7.14,0l-4.51,4.51c-1.97,1.97-1.97,5.17,0,7.14l23.16,23.16c.98.98,2.28,1.48,3.57,1.48s2.59-.49,3.57-1.48l54.13-54.13c1.97-1.97,1.97-5.17,0-7.14Z" style="stroke-width: 0px;"/>
</svg>