<?xml version="1.0" encoding="UTF-8"?>
<svg xmlns="http://www.w3.org/2000/svg" viewBox="0 0 852.95 141.73">
  <g id="Ebene_1" data-name="Ebene 1">
    <circle cx="70.87" cy="70.87" r="68.03" style="fill: #fff; opacity: .2; stroke-width: 0px;"/>
    <path d="m70.87,8c34.66,0,62.87,28.2,62.87,62.87s-28.2,62.87-62.87,62.87S8,105.53,8,70.87,36.2,8,70.87,8m0-8C31.73,0,0,31.73,0,70.87s31.73,70.87,70.87,70.87,70.87-31.73,70.87-70.87S110,0,70.87,0h0Z" style="stroke-width: 0px;"/>
    <path d="m114.24,42.48l-4.51-4.51c-1.97-1.97-5.17-1.97-7.14,0l-45.55,45.55c-.17.17-.37.21-.5.21s-.33-.04-.5-.21l-14.58-14.58c-1.97-1.97-5.17-1.97-7.14,0l-4.51,4.51c-1.97,1.97-1.97,5.17,0,7.14l23.16,23.16c.98.98,2.28,1.48,3.57,1.48s2.59-.49,3.57-1.48l54.13-54.13c1.97-1.97,1.97-5.17,0-7.14Z" style="stroke-width: 0px;"/>
  </g>
  <g id="Ebene_2" data-name="Ebene 2">
    <circle cx="251.45" cy="70.87" r="68.03" style="fill: #fff; opacity: .2; stroke-width: 0px;"/>
    <path d="m251.45,8c34.66,0,62.87,28.2,62.87,62.87s-28.2,62.87-62.87,62.87-62.87-28.2-62.87-62.87,28.2-62.87,62.87-62.87m0-8c-39.14,0-70.87,31.73-70.87,70.87s31.73,70.87,70.87,70.87,70.87-31.73,70.87-70.87S290.59,0,251.45,0h0Z" style="stroke-width: 0px;"/>
    <path d="m284.49,92.93l-22.08-22.08,22.06-22.06c.73-.73,1.13-1.7,1.13-2.73s-.4-2-1.13-2.73l-5.48-5.48c-1.46-1.46-4.01-1.46-5.47,0l-22.06,22.06-22.08-22.08c-1.46-1.46-4.01-1.46-5.47,0l-5.51,5.51c-1.51,1.51-1.51,3.96,0,5.47l22.08,22.08-22.06,22.06c-.73.73-1.13,1.7-1.13,2.73s.4,2,1.13,2.73l5.48,5.48c.73.73,1.7,1.13,2.73,1.13s2-.4,2.73-1.13l22.06-22.06,22.08,22.08c.73.73,1.7,1.13,2.73,1.13s2-.4,2.73-1.13l5.51-5.51c1.51-1.51,1.51-3.96,0-5.47Z" style="stroke-width: 0px;"/>
  </g>
  <g id="Ebene_3" data-name="Ebene 3">
    <circle cx="429.11" cy="70.87" r="68.03" style="fill: #fff; opacity: .2; stroke-width: 0px;"/>
    <path d="m429.11,8c34.66,0,62.87,28.2,62.87,62.87s-28.2,62.87-62.87,62.87-62.87-28.2-62.87-62.87,28.2-62.87,62.87-62.87m0-8c-39.14,0-70.87,31.73-70.87,70.87s31.73,70.87,70.87,70.87,70.87-31.73,70.87-70.87S468.25,0,429.11,0h0Z" style="stroke-width: 0px;"/>
    <path d="m467.34,43.48l-9.77-9.77c-1.24-1.24-3.25-1.24-4.49,0l-58,58.01c-.46.46-.76,1.04-.88,1.67l-2.19,11.83c-.19,1.03.13,2.08.87,2.82.6.6,1.41.93,2.25.93.19,0,.38-.02.57-.05l12.1-2.2c.64-.12,1.23-.42,1.68-.88l57.86-57.86c.6-.6.93-1.4.93-2.25s-.33-1.65-.93-2.24Z" style="stroke-width: 0px;"/>
  </g>
  <g id="Ebene_4" data-name="Ebene 4">
    <circle cx="599.65" cy="70.87" r="68.03" style="fill: #fff; opacity: .2; stroke-width: 0px;"/>
    <path d="m599.65,8c34.66,0,62.87,28.2,62.87,62.87s-28.2,62.87-62.87,62.87-62.87-28.2-62.87-62.87,28.2-62.87,62.87-62.87m0-8c-39.14,0-70.87,31.73-70.87,70.87s31.73,70.87,70.87,70.87,70.87-31.73,70.87-70.87S638.78,0,599.65,0h0Z" style="stroke-width: 0px;"/>
    <path d="m631.98,56.37c-5.74-5.89-13.43-9.14-21.66-9.14h-12.39l8.98-8.98c1.04-1.04,1.04-2.74,0-3.78l-5.21-5.21c-1.01-1.01-2.77-1.01-3.78,0l-22.62,22.62c-.5.5-.78,1.18-.78,1.89s.28,1.39.78,1.89l22.85,22.85c.52.52,1.21.78,1.89.78s1.37-.26,1.89-.78l5.14-5.14c1.04-1.04,1.04-2.74,0-3.78l-9.72-9.72h12.49c9.66,0,17.77,7.63,18.09,17.01.16,4.82-1.59,9.39-4.94,12.85-3.35,3.46-7.85,5.37-12.66,5.37h-41.02c-1.41,0-2.56,1.15-2.56,2.56v7.5c0,1.41,1.15,2.56,2.56,2.56h40.37c16.61,0,30.46-13.2,30.88-29.43.21-8.24-2.83-16.02-8.57-21.91Z" style="stroke-width: 0px;"/>
  </g>
  <g id="Ebene_5" data-name="Ebene 5">
    <circle cx="782.08" cy="70.87" r="68.03" style="fill: #fff; opacity: .2; stroke-width: 0px;"/>
    <path d="m782.09,8c34.66,0,62.87,28.2,62.87,62.87s-28.2,62.87-62.87,62.87-62.87-28.2-62.87-62.87,28.2-62.87,62.87-62.87m0-8c-39.14,0-70.87,31.73-70.87,70.87s31.73,70.87,70.87,70.87,70.87-31.73,70.87-70.87S821.22,0,782.09,0h0Z" style="stroke-width: 0px;"/>
    <path d="m815.56,92.61c-.71-7.71-6.82-13.9-14.52-14.72-4.26-.46-8.46.74-11.82,3.36-.49.38-1.14.44-1.64.14l-20.09-11.57c-.54-.31-.82-.92-.71-1.56.06-.4.1-.79.1-1.18,0-.29-.02-.6-.06-.93-.07-.6.21-1.18.72-1.47l19.54-11.34c.43-.25.97-.23,1.44.04,1.83,1.05,3.94,1.62,6.02,1.57,6.25-.07,11.52-5.2,11.74-11.44.12-3.26-1.06-6.34-3.32-8.68-2.26-2.34-5.29-3.63-8.55-3.63-6.03,0-11.1,4.51-11.8,10.49-.04.31-.04,1.01-.04,1.4,0,.49-.26.95-.69,1.2l-19.63,11.39c-.48.28-1.08.25-1.58-.07-2.58-1.68-5.58-2.4-8.67-2.09-6.49.66-11.64,6.08-11.97,12.62-.19,3.71,1.12,7.22,3.66,9.9,2.55,2.68,5.99,4.16,9.69,4.16,2.3,0,4.57-.6,6.57-1.74.49-.28,1.06-.29,1.52-.03l20.89,12.03c.5.29.76.87.67,1.47-.39,2.7-.07,5.36.94,7.91,2.52,6.35,8.36,10.55,14.89,10.7.12,0,.25,0,.37,0,4.54,0,8.88-1.88,11.98-5.21,3.18-3.41,4.76-8.05,4.33-12.72Z" style="stroke-width: 0px;"/>
  </g>
</svg>