<?xml version="1.0" encoding="UTF-8"?>
<svg id="Ebene_4" data-name="Ebene 4" xmlns="http://www.w3.org/2000/svg" viewBox="0 0 141.73 141.73">
  <circle cx="70.87" cy="70.87" r="68.03" style="fill: #fff; opacity: .2; stroke-width: 0px;"/>
  <path d="m70.87,8c34.66,0,62.87,28.2,62.87,62.87s-28.2,62.87-62.87,62.87S8,105.53,8,70.87,36.2,8,70.87,8M70.87,0C31.73,0,0,31.73,0,70.87s31.73,70.87,70.87,70.87,70.87-31.73,70.87-70.87S110,0,70.87,0h0Z" style="stroke-width: 0px;"/>
  <path d="m103.2,56.37c-5.74-5.89-13.43-9.14-21.66-9.14h-12.39l8.98-8.98c1.04-1.04,1.04-2.74,0-3.78l-5.21-5.21c-1.01-1.01-2.77-1.01-3.78,0l-22.62,22.62c-.5.5-.78,1.18-.78,1.89s.28,1.39.78,1.89l22.85,22.85c.52.52,1.21.78,1.89.78s1.37-.26,1.89-.78l5.14-5.14c1.04-1.04,1.04-2.74,0-3.78l-9.72-9.72h12.49c9.66,0,17.77,7.63,18.09,17.01.16,4.82-1.59,9.39-4.94,12.85-3.35,3.46-7.85,5.37-12.66,5.37h-41.02c-1.41,0-2.56,1.15-2.56,2.56v7.5c0,1.41,1.15,2.56,2.56,2.56h40.37c16.61,0,30.46-13.2,30.88-29.43.21-8.24-2.83-16.02-8.57-21.91Z" style="stroke-width: 0px;"/>
</svg>