<?xml version="1.0" encoding="UTF-8"?>
<svg id="Ebene_2" data-name="Ebene 2" xmlns="http://www.w3.org/2000/svg" viewBox="0 0 141.73 141.73">
  <circle cx="70.87" cy="70.87" r="68.03" style="fill: #fff; opacity: .2; stroke-width: 0px;"/>
  <path d="m70.87,8c34.66,0,62.87,28.2,62.87,62.87s-28.2,62.87-62.87,62.87S8,105.53,8,70.87,36.2,8,70.87,8M70.87,0C31.73,0,0,31.73,0,70.87s31.73,70.87,70.87,70.87,70.87-31.73,70.87-70.87S110,0,70.87,0h0Z" style="stroke-width: 0px;"/>
  <path d="m103.9,92.93l-22.08-22.08,22.06-22.06c.73-.73,1.13-1.7,1.13-2.73s-.4-2-1.13-2.73l-5.48-5.48c-1.46-1.46-4.01-1.46-5.47,0l-22.06,22.06-22.08-22.08c-1.46-1.46-4.01-1.46-5.47,0l-5.51,5.51c-1.51,1.51-1.51,3.96,0,5.47l22.08,22.08-22.06,22.06c-.73.73-1.13,1.7-1.13,2.73s.4,2,1.13,2.73l5.48,5.48c.73.73,1.7,1.13,2.73,1.13s2-.4,2.73-1.13l22.06-22.06,22.08,22.08c.73.73,1.7,1.13,2.73,1.13s2-.4,2.73-1.13l5.51-5.51c1.51-1.51,1.51-3.96,0-5.47Z" style="stroke-width: 0px;"/>
</svg>