<?xml version="1.0" encoding="UTF-8"?>
<svg id="Ebene_5" data-name="Ebene 5" xmlns="http://www.w3.org/2000/svg" viewBox="0 0 141.73 141.73">
  <circle cx="70.86" cy="70.87" r="68.03" style="fill: #fff; opacity: .2; stroke-width: 0px;"/>
  <path d="m70.87,8c34.66,0,62.87,28.2,62.87,62.87s-28.2,62.87-62.87,62.87S8,105.53,8,70.87,36.2,8,70.87,8M70.87,0C31.73,0,0,31.73,0,70.87s31.73,70.87,70.87,70.87,70.87-31.73,70.87-70.87S110,0,70.87,0h0Z" style="stroke-width: 0px;"/>
  <path d="m104.34,92.61c-.71-7.71-6.82-13.9-14.52-14.72-4.26-.46-8.46.74-11.82,3.36-.49.38-1.14.44-1.64.14l-20.09-11.57c-.54-.31-.82-.92-.71-1.56.06-.4.1-.79.1-1.18,0-.29-.02-.6-.06-.93-.07-.6.21-1.18.72-1.47l19.54-11.34c.43-.25.97-.23,1.44.04,1.83,1.05,3.94,1.62,6.02,1.57,6.25-.07,11.52-5.2,11.74-11.44.12-3.26-1.06-6.34-3.32-8.68-2.26-2.34-5.29-3.63-8.55-3.63-6.03,0-11.1,4.51-11.8,10.49-.04.31-.04,1.01-.04,1.4,0,.49-.26.95-.69,1.2l-19.63,11.39c-.48.28-1.08.25-1.58-.07-2.58-1.68-5.58-2.4-8.67-2.09-6.49.66-11.64,6.08-11.97,12.62-.19,3.71,1.12,7.22,3.66,9.9,2.55,2.68,5.99,4.16,9.69,4.16,2.3,0,4.57-.6,6.57-1.74.49-.28,1.06-.29,1.52-.03l20.89,12.03c.5.29.76.87.67,1.47-.39,2.7-.07,5.36.94,7.91,2.52,6.35,8.36,10.55,14.89,10.7.12,0,.25,0,.37,0,4.54,0,8.88-1.88,11.98-5.21,3.18-3.41,4.76-8.05,4.33-12.72Z" style="stroke-width: 0px;"/>
</svg>