<?xml version="1.0" encoding="UTF-8"?>
<svg id="Ebene_3" data-name="Ebene 3" xmlns="http://www.w3.org/2000/svg" viewBox="0 0 141.73 141.73">
  <circle cx="70.87" cy="70.87" r="68.03" style="fill: #fff; opacity: .2; stroke-width: 0px;"/>
  <path d="m70.87,8c34.66,0,62.87,28.2,62.87,62.87s-28.2,62.87-62.87,62.87S8,105.53,8,70.87,36.2,8,70.87,8M70.87,0C31.73,0,0,31.73,0,70.87s31.73,70.87,70.87,70.87,70.87-31.73,70.87-70.87S110,0,70.87,0h0Z" style="stroke-width: 0px;"/>
  <path d="m109.1,43.48l-9.77-9.77c-1.24-1.24-3.25-1.24-4.49,0l-58,58.01c-.46.46-.76,1.04-.88,1.67l-2.19,11.83c-.19,1.03.13,2.08.87,2.82.6.6,1.41.93,2.25.93.19,0,.38-.02.57-.05l12.1-2.2c.64-.12,1.23-.42,1.68-.88l57.86-57.86c.6-.6.93-1.4.93-2.25s-.33-1.65-.93-2.24Z" style="stroke-width: 0px;"/>
</svg>